{
	"asset":{
		"generator":"Khronos glTF Blender I/O v4.2.70",
		"version":"2.0"
	},
	"scene":0,
	"scenes":[
		{
			"name":"Scene",
			"nodes":[
				14
			]
		}
	],
	"nodes":[
		{
			"name":"Bone.arm.lower.l",
			"rotation":[
				0.005945118609815836,
				0.18495137989521027,
				0.11788466572761536,
				0.9756335616111755
			],
			"scale":[
				1,
				0.9999998807907104,
				1
			],
			"translation":[
				-2.1606683731079102e-07,
				1.5851317644119263,
				-2.9802322387695312e-08
			]
		},
		{
			"children":[
				0
			],
			"name":"Bone.arm.upper.l",
			"rotation":[
				0.09780276566743851,
				-0.15468458831310272,
				0.5936774611473083,
				0.7836162447929382
			],
			"scale":[
				1.0000001192092896,
				0.9999999403953552,
				1
			],
			"translation":[
				1.280568540096283e-09,
				2.4259002208709717,
				3.987224772572517e-09
			]
		},
		{
			"name":"Bone.arm.lower.r",
			"rotation":[
				0.04429134353995323,
				-0.16855180263519287,
				-0.11063991487026215,
				0.9784618020057678
			],
			"scale":[
				0.9999998807907104,
				1,
				1
			],
			"translation":[
				-2.5331974029541016e-07,
				1.9010752439498901,
				3.725290298461914e-08
			]
		},
		{
			"children":[
				2
			],
			"name":"Bone.arm.upper.r",
			"rotation":[
				0.10633343458175659,
				0.11725442856550217,
				-0.6506315469741821,
				0.742713451385498
			],
			"scale":[
				1.000000238418579,
				1,
				1.0000001192092896
			],
			"translation":[
				1.280568540096283e-09,
				2.4259002208709717,
				3.987224772572517e-09
			]
		},
		{
			"name":"Bone.head",
			"rotation":[
				-0.04900456592440605,
				0.05339651554822922,
				0.00586343789473176,
				0.9973530173301697
			],
			"scale":[
				1,
				0.9999999403953552,
				1
			],
			"translation":[
				7.450580596923828e-09,
				0.9375863075256348,
				1.862645149230957e-09
			]
		},
		{
			"children":[
				4
			],
			"name":"Bone.neck",
			"rotation":[
				0.027119478210806847,
				-0.05389866605401039,
				-0.018493348732590675,
				0.9980067610740662
			],
			"scale":[
				1,
				1.0000001192092896,
				0.9999999403953552
			],
			"translation":[
				1.280568540096283e-09,
				2.4259002208709717,
				3.987224772572517e-09
			]
		},
		{
			"children":[
				1,
				3,
				5
			],
			"name":"Bone.body.upper",
			"rotation":[
				0.009562799707055092,
				-0.00025689532049000263,
				0.012127259746193886,
				0.9998806715011597
			],
			"scale":[
				0.9999999403953552,
				1,
				1
			],
			"translation":[
				0,
				1.0000001192092896,
				0
			]
		},
		{
			"children":[
				6
			],
			"name":"Bone.body.center",
			"translation":[
				0,
				-0.3148012161254883,
				0.32030925154685974
			]
		},
		{
			"name":"Bone.leg.lower.r",
			"rotation":[
				-0.7071067094802856,
				-2.6692534405015067e-08,
				2.6692534405015067e-08,
				0.7071068286895752
			],
			"scale":[
				1,
				0.9999999403953552,
				0.9999999403953552
			],
			"translation":[
				0,
				1.3111793994903564,
				0
			]
		},
		{
			"children":[
				8
			],
			"name":"Bone.leg.upper.r",
			"rotation":[
				-0.5,
				-0.5,
				-0.5,
				0.5
			],
			"translation":[
				0,
				-0.3148012161254883,
				0.32030925154685974
			]
		},
		{
			"name":"Bone.013",
			"rotation":[
				0,
				0,
				0.7071067690849304,
				0.7071067690849304
			]
		},
		{
			"name":"Bone.leg.lower.l",
			"rotation":[
				-0.7071067094802856,
				2.6692534405015067e-08,
				-2.6692534405015067e-08,
				0.7071068286895752
			],
			"scale":[
				1,
				0.9999999403953552,
				0.9999999403953552
			],
			"translation":[
				0,
				1.2044179439544678,
				0
			]
		},
		{
			"children":[
				10,
				11
			],
			"name":"Bone.leg.upper.l",
			"rotation":[
				-0.5,
				0.5,
				0.5,
				0.5
			],
			"translation":[
				0,
				-0.3148012161254883,
				0.32030925154685974
			]
		},
		{
			"mesh":0,
			"name":"Cube",
			"skin":0
		},
		{
			"children":[
				13,
				7,
				9,
				12
			],
			"name":"Armature",
			"translation":[
				0,
				1.3181208372116089,
				0
			]
		}
	],
	"animations":[
		{
			"channels":[
				{
					"sampler":0,
					"target":{
						"node":7,
						"path":"translation"
					}
				},
				{
					"sampler":1,
					"target":{
						"node":7,
						"path":"rotation"
					}
				},
				{
					"sampler":2,
					"target":{
						"node":7,
						"path":"scale"
					}
				},
				{
					"sampler":3,
					"target":{
						"node":6,
						"path":"translation"
					}
				},
				{
					"sampler":4,
					"target":{
						"node":6,
						"path":"rotation"
					}
				},
				{
					"sampler":5,
					"target":{
						"node":6,
						"path":"scale"
					}
				},
				{
					"sampler":6,
					"target":{
						"node":1,
						"path":"translation"
					}
				},
				{
					"sampler":7,
					"target":{
						"node":1,
						"path":"rotation"
					}
				},
				{
					"sampler":8,
					"target":{
						"node":1,
						"path":"scale"
					}
				},
				{
					"sampler":9,
					"target":{
						"node":0,
						"path":"translation"
					}
				},
				{
					"sampler":10,
					"target":{
						"node":0,
						"path":"rotation"
					}
				},
				{
					"sampler":11,
					"target":{
						"node":0,
						"path":"scale"
					}
				},
				{
					"sampler":12,
					"target":{
						"node":3,
						"path":"translation"
					}
				},
				{
					"sampler":13,
					"target":{
						"node":3,
						"path":"rotation"
					}
				},
				{
					"sampler":14,
					"target":{
						"node":3,
						"path":"scale"
					}
				},
				{
					"sampler":15,
					"target":{
						"node":2,
						"path":"translation"
					}
				},
				{
					"sampler":16,
					"target":{
						"node":2,
						"path":"rotation"
					}
				},
				{
					"sampler":17,
					"target":{
						"node":2,
						"path":"scale"
					}
				},
				{
					"sampler":18,
					"target":{
						"node":5,
						"path":"translation"
					}
				},
				{
					"sampler":19,
					"target":{
						"node":5,
						"path":"rotation"
					}
				},
				{
					"sampler":20,
					"target":{
						"node":5,
						"path":"scale"
					}
				},
				{
					"sampler":21,
					"target":{
						"node":4,
						"path":"translation"
					}
				},
				{
					"sampler":22,
					"target":{
						"node":4,
						"path":"rotation"
					}
				},
				{
					"sampler":23,
					"target":{
						"node":4,
						"path":"scale"
					}
				},
				{
					"sampler":24,
					"target":{
						"node":9,
						"path":"translation"
					}
				},
				{
					"sampler":25,
					"target":{
						"node":9,
						"path":"rotation"
					}
				},
				{
					"sampler":26,
					"target":{
						"node":9,
						"path":"scale"
					}
				},
				{
					"sampler":27,
					"target":{
						"node":8,
						"path":"translation"
					}
				},
				{
					"sampler":28,
					"target":{
						"node":8,
						"path":"rotation"
					}
				},
				{
					"sampler":29,
					"target":{
						"node":8,
						"path":"scale"
					}
				},
				{
					"sampler":30,
					"target":{
						"node":12,
						"path":"translation"
					}
				},
				{
					"sampler":31,
					"target":{
						"node":12,
						"path":"rotation"
					}
				},
				{
					"sampler":32,
					"target":{
						"node":12,
						"path":"scale"
					}
				},
				{
					"sampler":33,
					"target":{
						"node":10,
						"path":"translation"
					}
				},
				{
					"sampler":34,
					"target":{
						"node":10,
						"path":"rotation"
					}
				},
				{
					"sampler":35,
					"target":{
						"node":10,
						"path":"scale"
					}
				},
				{
					"sampler":36,
					"target":{
						"node":11,
						"path":"translation"
					}
				},
				{
					"sampler":37,
					"target":{
						"node":11,
						"path":"rotation"
					}
				},
				{
					"sampler":38,
					"target":{
						"node":11,
						"path":"scale"
					}
				}
			],
			"name":"ArmatureAction-walk",
			"samplers":[
				{
					"input":7,
					"interpolation":"STEP",
					"output":8
				},
				{
					"input":7,
					"interpolation":"STEP",
					"output":9
				},
				{
					"input":7,
					"interpolation":"STEP",
					"output":10
				},
				{
					"input":7,
					"interpolation":"STEP",
					"output":11
				},
				{
					"input":7,
					"interpolation":"STEP",
					"output":12
				},
				{
					"input":7,
					"interpolation":"STEP",
					"output":13
				},
				{
					"input":7,
					"interpolation":"STEP",
					"output":14
				},
				{
					"input":15,
					"interpolation":"LINEAR",
					"output":16
				},
				{
					"input":7,
					"interpolation":"STEP",
					"output":17
				},
				{
					"input":7,
					"interpolation":"STEP",
					"output":18
				},
				{
					"input":15,
					"interpolation":"LINEAR",
					"output":19
				},
				{
					"input":7,
					"interpolation":"STEP",
					"output":20
				},
				{
					"input":7,
					"interpolation":"STEP",
					"output":21
				},
				{
					"input":15,
					"interpolation":"LINEAR",
					"output":22
				},
				{
					"input":7,
					"interpolation":"STEP",
					"output":23
				},
				{
					"input":7,
					"interpolation":"STEP",
					"output":24
				},
				{
					"input":15,
					"interpolation":"LINEAR",
					"output":25
				},
				{
					"input":7,
					"interpolation":"STEP",
					"output":26
				},
				{
					"input":7,
					"interpolation":"STEP",
					"output":27
				},
				{
					"input":7,
					"interpolation":"STEP",
					"output":28
				},
				{
					"input":7,
					"interpolation":"STEP",
					"output":29
				},
				{
					"input":7,
					"interpolation":"STEP",
					"output":30
				},
				{
					"input":7,
					"interpolation":"STEP",
					"output":31
				},
				{
					"input":7,
					"interpolation":"STEP",
					"output":32
				},
				{
					"input":7,
					"interpolation":"STEP",
					"output":33
				},
				{
					"input":15,
					"interpolation":"LINEAR",
					"output":34
				},
				{
					"input":7,
					"interpolation":"STEP",
					"output":35
				},
				{
					"input":7,
					"interpolation":"STEP",
					"output":36
				},
				{
					"input":15,
					"interpolation":"LINEAR",
					"output":37
				},
				{
					"input":7,
					"interpolation":"STEP",
					"output":38
				},
				{
					"input":7,
					"interpolation":"STEP",
					"output":39
				},
				{
					"input":15,
					"interpolation":"LINEAR",
					"output":40
				},
				{
					"input":7,
					"interpolation":"STEP",
					"output":41
				},
				{
					"input":7,
					"interpolation":"STEP",
					"output":42
				},
				{
					"input":7,
					"interpolation":"STEP",
					"output":43
				},
				{
					"input":7,
					"interpolation":"STEP",
					"output":44
				},
				{
					"input":7,
					"interpolation":"STEP",
					"output":45
				},
				{
					"input":15,
					"interpolation":"LINEAR",
					"output":46
				},
				{
					"input":7,
					"interpolation":"STEP",
					"output":47
				}
			]
		},
		{
			"channels":[
				{
					"sampler":0,
					"target":{
						"node":13,
						"path":"translation"
					}
				},
				{
					"sampler":1,
					"target":{
						"node":13,
						"path":"rotation"
					}
				},
				{
					"sampler":2,
					"target":{
						"node":13,
						"path":"scale"
					}
				}
			],
			"name":"CubeAction",
			"samplers":[
				{
					"input":48,
					"interpolation":"LINEAR",
					"output":49
				},
				{
					"input":48,
					"interpolation":"LINEAR",
					"output":50
				},
				{
					"input":48,
					"interpolation":"LINEAR",
					"output":51
				}
			]
		}
	],
	"materials":[
		{
			"doubleSided":true,
			"name":"Material",
			"pbrMetallicRoughness":{
				"baseColorFactor":[
					0.800000011920929,
					0.800000011920929,
					0.800000011920929,
					1
				],
				"metallicFactor":0,
				"roughnessFactor":0.5
			}
		}
	],
	"meshes":[
		{
			"name":"Cube",
			"primitives":[
				{
					"attributes":{
						"POSITION":0,
						"NORMAL":1,
						"TEXCOORD_0":2,
						"JOINTS_0":3,
						"WEIGHTS_0":4
					},
					"indices":5,
					"material":0
				}
			]
		}
	],
	"skins":[
		{
			"inverseBindMatrices":6,
			"joints":[
				7,
				6,
				1,
				0,
				3,
				2,
				5,
				4,
				9,
				8,
				12,
				10,
				11
			],
			"name":"Armature"
		}
	],
	"accessors":[
		{
			"bufferView":0,
			"componentType":5126,
			"count":244,
			"max":[
				3.521592855453491,
				7.8155598640441895,
				1.1486889123916626
			],
			"min":[
				-3.1776702404022217,
				-0.8782577514648438,
				-0.4559333026409149
			],
			"type":"VEC3"
		},
		{
			"bufferView":1,
			"componentType":5126,
			"count":244,
			"type":"VEC3"
		},
		{
			"bufferView":2,
			"componentType":5126,
			"count":244,
			"type":"VEC2"
		},
		{
			"bufferView":3,
			"componentType":5121,
			"count":244,
			"type":"VEC4"
		},
		{
			"bufferView":4,
			"componentType":5126,
			"count":244,
			"type":"VEC4"
		},
		{
			"bufferView":5,
			"componentType":5123,
			"count":372,
			"type":"SCALAR"
		},
		{
			"bufferView":6,
			"componentType":5126,
			"count":13,
			"type":"MAT4"
		},
		{
			"bufferView":7,
			"componentType":5126,
			"count":2,
			"max":[
				3.3333333333333335
			],
			"min":[
				0
			],
			"type":"SCALAR"
		},
		{
			"bufferView":8,
			"componentType":5126,
			"count":2,
			"type":"VEC3"
		},
		{
			"bufferView":9,
			"componentType":5126,
			"count":2,
			"type":"VEC4"
		},
		{
			"bufferView":10,
			"componentType":5126,
			"count":2,
			"type":"VEC3"
		},
		{
			"bufferView":11,
			"componentType":5126,
			"count":2,
			"type":"VEC3"
		},
		{
			"bufferView":12,
			"componentType":5126,
			"count":2,
			"type":"VEC4"
		},
		{
			"bufferView":13,
			"componentType":5126,
			"count":2,
			"type":"VEC3"
		},
		{
			"bufferView":14,
			"componentType":5126,
			"count":2,
			"type":"VEC3"
		},
		{
			"bufferView":15,
			"componentType":5126,
			"count":81,
			"max":[
				3.3333333333333335
			],
			"min":[
				0
			],
			"type":"SCALAR"
		},
		{
			"bufferView":16,
			"componentType":5126,
			"count":81,
			"type":"VEC4"
		},
		{
			"bufferView":17,
			"componentType":5126,
			"count":2,
			"type":"VEC3"
		},
		{
			"bufferView":18,
			"componentType":5126,
			"count":2,
			"type":"VEC3"
		},
		{
			"bufferView":19,
			"componentType":5126,
			"count":81,
			"type":"VEC4"
		},
		{
			"bufferView":20,
			"componentType":5126,
			"count":2,
			"type":"VEC3"
		},
		{
			"bufferView":21,
			"componentType":5126,
			"count":2,
			"type":"VEC3"
		},
		{
			"bufferView":22,
			"componentType":5126,
			"count":81,
			"type":"VEC4"
		},
		{
			"bufferView":23,
			"componentType":5126,
			"count":2,
			"type":"VEC3"
		},
		{
			"bufferView":24,
			"componentType":5126,
			"count":2,
			"type":"VEC3"
		},
		{
			"bufferView":25,
			"componentType":5126,
			"count":81,
			"type":"VEC4"
		},
		{
			"bufferView":26,
			"componentType":5126,
			"count":2,
			"type":"VEC3"
		},
		{
			"bufferView":27,
			"componentType":5126,
			"count":2,
			"type":"VEC3"
		},
		{
			"bufferView":28,
			"componentType":5126,
			"count":2,
			"type":"VEC4"
		},
		{
			"bufferView":29,
			"componentType":5126,
			"count":2,
			"type":"VEC3"
		},
		{
			"bufferView":30,
			"componentType":5126,
			"count":2,
			"type":"VEC3"
		},
		{
			"bufferView":31,
			"componentType":5126,
			"count":2,
			"type":"VEC4"
		},
		{
			"bufferView":32,
			"componentType":5126,
			"count":2,
			"type":"VEC3"
		},
		{
			"bufferView":33,
			"componentType":5126,
			"count":2,
			"type":"VEC3"
		},
		{
			"bufferView":34,
			"componentType":5126,
			"count":81,
			"type":"VEC4"
		},
		{
			"bufferView":35,
			"componentType":5126,
			"count":2,
			"type":"VEC3"
		},
		{
			"bufferView":36,
			"componentType":5126,
			"count":2,
			"type":"VEC3"
		},
		{
			"bufferView":37,
			"componentType":5126,
			"count":81,
			"type":"VEC4"
		},
		{
			"bufferView":38,
			"componentType":5126,
			"count":2,
			"type":"VEC3"
		},
		{
			"bufferView":39,
			"componentType":5126,
			"count":2,
			"type":"VEC3"
		},
		{
			"bufferView":40,
			"componentType":5126,
			"count":81,
			"type":"VEC4"
		},
		{
			"bufferView":41,
			"componentType":5126,
			"count":2,
			"type":"VEC3"
		},
		{
			"bufferView":42,
			"componentType":5126,
			"count":2,
			"type":"VEC3"
		},
		{
			"bufferView":43,
			"componentType":5126,
			"count":2,
			"type":"VEC4"
		},
		{
			"bufferView":44,
			"componentType":5126,
			"count":2,
			"type":"VEC3"
		},
		{
			"bufferView":45,
			"componentType":5126,
			"count":2,
			"type":"VEC3"
		},
		{
			"bufferView":46,
			"componentType":5126,
			"count":81,
			"type":"VEC4"
		},
		{
			"bufferView":47,
			"componentType":5126,
			"count":2,
			"type":"VEC3"
		},
		{
			"bufferView":48,
			"componentType":5126,
			"count":1,
			"max":[
				0.041666666666666664
			],
			"min":[
				0.041666666666666664
			],
			"type":"SCALAR"
		},
		{
			"bufferView":49,
			"componentType":5126,
			"count":1,
			"type":"VEC3"
		},
		{
			"bufferView":50,
			"componentType":5126,
			"count":1,
			"type":"VEC4"
		},
		{
			"bufferView":51,
			"componentType":5126,
			"count":1,
			"type":"VEC3"
		}
	],
	"bufferViews":[
		{
			"buffer":0,
			"byteLength":2928,
			"byteOffset":0,
			"target":34962
		},
		{
			"buffer":0,
			"byteLength":2928,
			"byteOffset":2928,
			"target":34962
		},
		{
			"buffer":0,
			"byteLength":1952,
			"byteOffset":5856,
			"target":34962
		},
		{
			"buffer":0,
			"byteLength":976,
			"byteOffset":7808,
			"target":34962
		},
		{
			"buffer":0,
			"byteLength":3904,
			"byteOffset":8784,
			"target":34962
		},
		{
			"buffer":0,
			"byteLength":744,
			"byteOffset":12688,
			"target":34963
		},
		{
			"buffer":0,
			"byteLength":832,
			"byteOffset":13432
		},
		{
			"buffer":0,
			"byteLength":8,
			"byteOffset":14264
		},
		{
			"buffer":0,
			"byteLength":24,
			"byteOffset":14272
		},
		{
			"buffer":0,
			"byteLength":32,
			"byteOffset":14296
		},
		{
			"buffer":0,
			"byteLength":24,
			"byteOffset":14328
		},
		{
			"buffer":0,
			"byteLength":24,
			"byteOffset":14352
		},
		{
			"buffer":0,
			"byteLength":32,
			"byteOffset":14376
		},
		{
			"buffer":0,
			"byteLength":24,
			"byteOffset":14408
		},
		{
			"buffer":0,
			"byteLength":24,
			"byteOffset":14432
		},
		{
			"buffer":0,
			"byteLength":324,
			"byteOffset":14456
		},
		{
			"buffer":0,
			"byteLength":1296,
			"byteOffset":14780
		},
		{
			"buffer":0,
			"byteLength":24,
			"byteOffset":16076
		},
		{
			"buffer":0,
			"byteLength":24,
			"byteOffset":16100
		},
		{
			"buffer":0,
			"byteLength":1296,
			"byteOffset":16124
		},
		{
			"buffer":0,
			"byteLength":24,
			"byteOffset":17420
		},
		{
			"buffer":0,
			"byteLength":24,
			"byteOffset":17444
		},
		{
			"buffer":0,
			"byteLength":1296,
			"byteOffset":17468
		},
		{
			"buffer":0,
			"byteLength":24,
			"byteOffset":18764
		},
		{
			"buffer":0,
			"byteLength":24,
			"byteOffset":18788
		},
		{
			"buffer":0,
			"byteLength":1296,
			"byteOffset":18812
		},
		{
			"buffer":0,
			"byteLength":24,
			"byteOffset":20108
		},
		{
			"buffer":0,
			"byteLength":24,
			"byteOffset":20132
		},
		{
			"buffer":0,
			"byteLength":32,
			"byteOffset":20156
		},
		{
			"buffer":0,
			"byteLength":24,
			"byteOffset":20188
		},
		{
			"buffer":0,
			"byteLength":24,
			"byteOffset":20212
		},
		{
			"buffer":0,
			"byteLength":32,
			"byteOffset":20236
		},
		{
			"buffer":0,
			"byteLength":24,
			"byteOffset":20268
		},
		{
			"buffer":0,
			"byteLength":24,
			"byteOffset":20292
		},
		{
			"buffer":0,
			"byteLength":1296,
			"byteOffset":20316
		},
		{
			"buffer":0,
			"byteLength":24,
			"byteOffset":21612
		},
		{
			"buffer":0,
			"byteLength":24,
			"byteOffset":21636
		},
		{
			"buffer":0,
			"byteLength":1296,
			"byteOffset":21660
		},
		{
			"buffer":0,
			"byteLength":24,
			"byteOffset":22956
		},
		{
			"buffer":0,
			"byteLength":24,
			"byteOffset":22980
		},
		{
			"buffer":0,
			"byteLength":1296,
			"byteOffset":23004
		},
		{
			"buffer":0,
			"byteLength":24,
			"byteOffset":24300
		},
		{
			"buffer":0,
			"byteLength":24,
			"byteOffset":24324
		},
		{
			"buffer":0,
			"byteLength":32,
			"byteOffset":24348
		},
		{
			"buffer":0,
			"byteLength":24,
			"byteOffset":24380
		},
		{
			"buffer":0,
			"byteLength":24,
			"byteOffset":24404
		},
		{
			"buffer":0,
			"byteLength":1296,
			"byteOffset":24428
		},
		{
			"buffer":0,
			"byteLength":24,
			"byteOffset":25724
		},
		{
			"buffer":0,
			"byteLength":4,
			"byteOffset":25748
		},
		{
			"buffer":0,
			"byteLength":12,
			"byteOffset":25752
		},
		{
			"buffer":0,
			"byteLength":16,
			"byteOffset":25764
		},
		{
			"buffer":0,
			"byteLength":12,
			"byteOffset":25780
		}
	],
	"buffers":[
		{
			"byteLength":25792,
			"uri":"player_skeleton_walk.bin"
		}
	]
}
